<svg xmlns="http://www.w3.org/2000/svg" xmlns:xlink="http://www.w3.org/1999/xlink" viewBox="0,0,256,256" width="32px" height="32px" fill-rule="nonzero"><defs><linearGradient x1="10.489" y1="9.901" x2="21.767" y2="21.178" gradientUnits="userSpaceOnUse" id="color-1"><stop offset="0" stop-color="#72b4eb"></stop><stop offset="1" stop-color="#136ab4"></stop></linearGradient><linearGradient x1="10.489" y1="9.901" x2="21.767" y2="21.178" gradientUnits="userSpaceOnUse" id="color-2"><stop offset="0" stop-color="#ffffff" stop-opacity="0.6"></stop><stop offset="0.493" stop-color="#ffffff" stop-opacity="0"></stop><stop offset="0.997" stop-color="#ffffff" stop-opacity="0.3"></stop></linearGradient></defs><g fill="none" fill-rule="nonzero" stroke="none" stroke-width="1" stroke-linecap="butt" stroke-linejoin="miter" stroke-miterlimit="10" stroke-dasharray="" stroke-dashoffset="0" font-family="none" font-weight="none" font-size="none" text-anchor="none" style="mix-blend-mode: normal"><g transform="scale(8,8)"><path d="M15.785,4.826c-0.458,0.102 -0.783,0.507 -0.783,0.976v14.693c0,1.014 -1.639,0.919 -3.74,1.529c-1.619,0.47 -3.24,1.609 -3.264,3.613c-0.022,1.855 1.595,3.351 3.45,3.362c5.554,0.034 5.554,-5.089 5.554,-8v-8.642c0,-0.469 0.326,-0.875 0.783,-0.976l5.434,-1.208c0.458,-0.102 0.783,-0.507 0.783,-0.976v-4.95c0,-0.64 -0.592,-1.115 -1.217,-0.976z" fill="url(#color-1)"></path><path d="M23.004,3.746c0.275,0 0.498,0.224 0.498,0.5v4.951c0,0.236 -0.161,0.437 -0.392,0.488l-5.434,1.208c-0.692,0.154 -1.175,0.756 -1.175,1.464v8.643c0,1.414 0,3.35 -0.648,4.894c-0.736,1.753 -2.16,2.605 -4.352,2.605h-0.051c-0.801,-0.005 -1.584,-0.338 -2.15,-0.914c-0.526,-0.536 -0.811,-1.225 -0.803,-1.942c0.025,-2.079 2.039,-2.888 2.904,-3.139c0.606,-0.176 1.178,-0.293 1.682,-0.396c1.298,-0.265 2.418,-0.493 2.418,-1.614v-14.692c0,-0.236 0.161,-0.437 0.392,-0.488l7,-1.556c0.038,-0.008 0.075,-0.012 0.111,-0.012M23.004,3.246c-0.072,0 -0.145,0.008 -0.219,0.024l-7,1.556c-0.458,0.102 -0.783,0.507 -0.783,0.976v14.693c0,1.014 -1.639,0.919 -3.74,1.529c-1.619,0.47 -3.24,1.609 -3.264,3.613c-0.022,1.855 1.595,3.351 3.45,3.362c0.018,0 0.036,0 0.054,0c5.501,0 5.5,-5.099 5.5,-8v-8.642c0,-0.469 0.326,-0.875 0.783,-0.976l5.434,-1.208c0.458,-0.102 0.783,-0.507 0.783,-0.976v-4.95c0,-0.565 -0.461,-1.001 -0.998,-1.001z" fill="url(#color-2)"></path></g></g></svg>