<svg xmlns="http://www.w3.org/2000/svg" xmlns:xlink="http://www.w3.org/1999/xlink" viewBox="0,0,256,256" width="100px" height="100px" fill-rule="nonzero"><g fill="none" fill-rule="nonzero" stroke="none" stroke-width="1" stroke-linecap="butt" stroke-linejoin="miter" stroke-miterlimit="10" stroke-dasharray="" stroke-dashoffset="0" font-family="none" font-weight="none" font-size="none" text-anchor="none" style="mix-blend-mode: normal"><g transform="scale(2.56,2.56)"><path d="M82.68,17.8c-3.57,-2.36 -7.45,-4.59 -12.09,-6.04c-2.32,-0.72 -4.85,-1.22 -7.57,-1.29c-2.71,-0.07 -5.64,0.34 -8.42,1.37l-1,0.37c-0.66,0.25 -1.3,0.6 -1.89,1.05c-0.37,0.29 -0.71,0.6 -1.01,0.94c-1.54,1.58 -2.38,3.83 -2.07,6.19l2.29,17.71c-3.1,-0.94 -6.43,-1.31 -9.86,-0.98c-14.02,1.35 -24.29,13.81 -22.94,27.82c1.35,14.02 13.81,24.29 27.82,22.94c14.02,-1.35 24.29,-13.81 22.94,-27.82c-0.06,-0.58 -0.14,-1.14 -0.23,-1.7c0,0 0,-0.01 0,-0.02l-4.52,-35.06c1.24,-0.28 2.66,-0.39 4.18,-0.31c3.27,0.17 6.88,1.12 10.47,2.42l0.07,0.03c1.82,0.66 3.93,0.02 5.05,-1.67c1.31,-1.98 0.77,-4.64 -1.21,-5.95z" fill="#3e9ff0"></path><path d="M43.5,72.01c2.57,0 4.68,-1.93 4.97,-4.42c0.03,-0.3 -0.19,-0.58 -0.49,-0.58c-1.73,0 -7.22,0 -8.95,0c-0.31,0 -0.53,0.27 -0.49,0.58c0.29,2.49 2.4,4.42 4.97,4.42z" fill="#080108"></path><path d="M54.81,63.83c-0.55,0 -1,-0.45 -1,-1c0,-1.02 -0.83,-1.85 -1.85,-1.85c-1.02,0 -1.85,0.83 -1.85,1.85c0,0.55 -0.45,1 -1,1c-0.55,0 -1,-0.45 -1,-1c0,-2.12 1.73,-3.85 3.85,-3.85c2.12,0 3.85,1.73 3.85,3.85c0,0.55 -0.45,1 -1,1z" fill="#080108"></path><path d="M37.7,63.83c-0.55,0 -1,-0.45 -1,-1c0,-1.02 -0.83,-1.85 -1.85,-1.85c-1.02,0 -1.85,0.83 -1.85,1.85c0,0.55 -0.45,1 -1,1c-0.55,0 -1,-0.45 -1,-1c0,-2.12 1.73,-3.85 3.85,-3.85c2.12,0 3.85,1.73 3.85,3.85c0,0.55 -0.45,1 -1,1z" fill="#080108"></path><path d="M56.82,40.86c-0.09,0 -0.18,-0.02 -0.26,-0.07c-2.21,-1.33 -4.59,-2.31 -7.08,-2.92c-0.27,-0.07 -0.43,-0.34 -0.37,-0.6c0.07,-0.27 0.33,-0.43 0.6,-0.37c2.59,0.63 5.06,1.65 7.36,3.03c0.24,0.14 0.31,0.45 0.17,0.69c-0.09,0.16 -0.26,0.24 -0.43,0.24z" fill="#080108"></path></g></g></svg>